HIERARCHY
ROOT Hips
{
	OFFSET	0.00	0.00	0.00
	CHANNELS 6 Xposition Yposition Zposition Zrotation Xrotation Yrotation
	JOINT LeftUpLeg
	{
		OFFSET	 0.126116	-0.014019	-0.065224
		CHANNELS 3 Zrotation Xrotation Yrotation
		JOINT LeftLeg
		{
			OFFSET	 0.000000	 0.000000	 0.569914
			CHANNELS 3 Zrotation Xrotation Yrotation
			JOINT LeftFoot
			{
				OFFSET	 0.000000	 0.000000	 0.544423
				CHANNELS 3 Zrotation Xrotation Yrotation
				JOINT LeftToeBase
				{
					OFFSET	 0.000000	 0.000000	 0.207117
					CHANNELS 3 Zrotation Xrotation Yrotation
					End Site
					{
						OFFSET	 0.000000	 0.000000	 0.207117
					}
				}
			}
		}
	}
	JOINT RightUpLeg
	{
		OFFSET	-0.124023	-0.008373	-0.065224
		CHANNELS 3 Zrotation Xrotation Yrotation
		JOINT RightLeg
		{
			OFFSET	 0.000000	 0.000000	 0.570047
			CHANNELS 3 Zrotation Xrotation Yrotation
			JOINT RightFoot
			{
				OFFSET	 0.000000	 0.000000	 0.544354
				CHANNELS 3 Zrotation Xrotation Yrotation
				JOINT RightToeBase
				{
					OFFSET	 0.000000	 0.000000	 0.207540
					CHANNELS 3 Zrotation Xrotation Yrotation
					End Site
					{
						OFFSET	 0.000000	 0.000000	 0.207540
					}
				}
			}
		}
	}
	JOINT Spine
	{
		OFFSET	 0.000184	-0.007763	 0.117403
		CHANNELS 3 Zrotation Xrotation Yrotation
		JOINT Spine1
		{
			OFFSET	 0.000000	 0.000000	 0.137269
			CHANNELS 3 Zrotation Xrotation Yrotation
			JOINT Spine2
			{
				OFFSET	 0.000000	 0.000000	 0.156879
				CHANNELS 3 Zrotation Xrotation Yrotation
				JOINT LeftShoulder
				{
					OFFSET	 0.080501	-0.002496	 0.160144
					CHANNELS 3 Zrotation Xrotation Yrotation
					JOINT LeftArm
					{
						OFFSET	 0.000000	 0.000000	 0.164363
						CHANNELS 3 Zrotation Xrotation Yrotation
						JOINT LeftForeArm
						{
							OFFSET	 0.000000	 0.000000	 0.364576
							CHANNELS 3 Zrotation Xrotation Yrotation
							JOINT LeftHand
							{
								OFFSET	 0.000000	 0.000000	 0.360812
								CHANNELS 3 Zrotation Xrotation Yrotation
								JOINT LeftHandIndex1
								{
									OFFSET	 0.000000	 0.000000	 0.086006
									CHANNELS 3 Zrotation Xrotation Yrotation
									JOINT LeftHandIndex2
									{
										OFFSET	 0.000000	 0.000000	 0.047236
										CHANNELS 3 Zrotation Xrotation Yrotation
										JOINT LeftHandIndex3
										{
											OFFSET	-0.004284	-0.000551	 0.038166
											CHANNELS 3 Zrotation Xrotation Yrotation
											End Site
											{
												OFFSET	-0.004284	-0.000551	 0.038166
											}
										}
									}
								}
							}
						}
					}
				}
				JOINT Neck
				{
					OFFSET	 0.000000	 0.000000	 0.176489
					CHANNELS 3 Zrotation Xrotation Yrotation
					JOINT Head
					{
						OFFSET	 0.000000	-0.001747	 0.077940
						CHANNELS 3 Zrotation Xrotation Yrotation
						End Site
						{
							OFFSET	 0.000000	-0.001747	 0.077940
						}
					}
				}
				JOINT RightShoulder
				{
					OFFSET	-0.080363	 0.000306	 0.159706
					CHANNELS 3 Zrotation Xrotation Yrotation
					JOINT RightArm
					{
						OFFSET	 0.000000	 0.000000	 0.164196
						CHANNELS 3 Zrotation Xrotation Yrotation
						JOINT RightForeArm
						{
							OFFSET	 0.000000	 0.000000	 0.365611
							CHANNELS 3 Zrotation Xrotation Yrotation
							JOINT RightHand
							{
								OFFSET	 0.000000	 0.000000	 0.360648
								CHANNELS 3 Zrotation Xrotation Yrotation
								JOINT RightHandIndex1
								{
									OFFSET	 0.000000	 0.000000	 0.069977
									CHANNELS 3 Zrotation Xrotation Yrotation
									JOINT RightHandIndex2
									{
										OFFSET	 0.000000	 0.000000	 0.052305
										CHANNELS 3 Zrotation Xrotation Yrotation
										JOINT RightHandIndex3
										{
											OFFSET	 0.009002	-0.000782	 0.042196
											CHANNELS 3 Zrotation Xrotation Yrotation
											End Site
											{
												OFFSET	 0.009002	-0.000782	 0.042196
											}
										}
									}
								}
							}
						}
					}
				}
			}
		}
	}
}
MOTION
Frames:    4
Frame Time: 0.03333334
 3.082347	 6.839553	 0.406740	-87.064290	-1.926310	-0.273625	 6.163284	-0.080257	-177.893600	-2.834836	-33.768760	 1.018677	 84.886980	 89.972030	-84.180470	-2.376524	 30.359540	-0.041770	 1.847893	-31.409790	 179.626800	 16.684200	-68.987840	 19.971950	-178.080300	 88.782440	-174.410200	 2.377817	 29.824520	 0.031365	 2.628679	 4.359496	 1.796508	-6.971110	-1.718629	 0.681766	-6.959485	-4.247570	-0.717395	-91.783960	 78.373600	 178.837700	 35.368070	 62.826480	-48.165210	-14.009920	-0.316276	-37.991370	 3.756627	-2.107691	-5.366728	-3.812334	 37.924440	-2.927599	-2.450526	 36.184240	 0.754587	-1.378229	 35.397820	-2.634230	-0.339436	 4.106287	-2.157892	-1.224990	-12.103700	-1.736419	 89.787710	 78.455680	 179.485300	-41.715450	 71.430750	 43.285600	 7.304608	-3.944634	 34.288900	-12.909800	-3.203994	 9.590030	 6.437017	 35.671460	-0.771858	 2.830251	 35.756010	-7.813440	-2.350882	 35.473990	 5.254307
 3.031639	 6.834146	 0.404448	-86.862460	-1.528290	-0.736068	 5.987400	 4.405765	-177.115700	-3.314500	-29.059620	 0.939906	 11.402020	 89.588840	-10.792260	-2.373211	 30.960620	-0.055182	 2.101594	-33.708640	 179.768500	 11.632450	-61.310440	 14.314250	-169.740600	 89.152580	 177.585800	 2.379719	 29.444900	 0.023015	 5.785658	 4.251803	 2.350338	-7.845366	-1.658340	 0.596190	-7.902389	-4.140901	-0.807569	-91.765450	 78.723350	 178.763400	 34.849960	 61.683590	-49.229280	-13.871720	-0.195698	-39.648770	 3.721306	-2.097431	-5.368670	-3.812334	 37.924440	-2.927599	-2.450526	 36.184240	 0.754587	-1.378229	 35.397820	-2.634230	-0.368261	 4.253373	-2.570552	-1.380404	-12.419250	-1.693634	 89.779880	 78.109480	 179.450200	-41.612000	 71.586280	 42.621320	 7.557470	-3.837163	 35.165330	-12.695840	-3.198387	 9.593383	 6.437017	 35.671460	-0.771858	 2.830251	 35.756010	-7.813440	-2.350882	 35.473990	 5.254307
 2.987409	 6.830500	 0.402916	-86.733400	-1.113508	-0.910076	 6.481861	 8.856328	-177.028000	-3.520843	-23.541060	 1.206884	 6.696248	 88.420080	-5.431737	-2.365352	 32.269620	-0.084838	 2.363946	-34.952260	 179.695600	 8.992228	-54.168090	 11.087250	-149.971200	 89.474000	 158.149800	 2.387054	 27.830940	-0.012031	 8.543788	 4.070851	 2.564269	-8.451466	-1.634648	 0.552466	-8.611990	-4.011173	-0.870654	-91.758290	 78.850320	 178.754100	 34.541240	 60.897510	-50.012920	-13.880290	-0.020677	-40.601450	 3.574275	-2.115226	-5.365647	-3.812334	 37.924440	-2.927599	-2.450526	 36.184240	 0.754587	-1.378229	 35.397820	-2.634230	-0.317999	 4.362973	-2.846570	-1.520764	-12.600190	-1.720419	 89.777000	 77.982970	 179.451400	-41.511980	 71.778710	 42.271380	 7.749200	-3.734206	 35.328460	-12.671660	-3.198692	 9.593243	 6.437017	 35.671460	-0.771858	 2.830251	 35.756010	-7.813440	-2.350882	 35.473990	 5.254307
 2.935091	 6.825724	 0.400596	-86.545130	-0.727269	-1.132835	 8.268818	 17.095650	-176.713300	-4.137325	-11.228410	 1.528529	 3.299649	 83.951030	 0.444426	-2.349800	 34.500000	-0.136909	 2.864715	-35.643880	 179.733700	 6.379597	-46.521600	 8.126230	-147.350700	 89.581280	 155.400000	 2.386522	 27.957450	-0.009303	 11.591060	 3.812990	 2.767857	-9.015553	-1.616236	 0.549272	-9.279211	-3.847205	-0.925187	-91.753260	 78.933690	 178.740600	 34.307850	 60.401990	-50.717630	-13.990080	 0.122614	-41.106430	 3.516782	-2.112082	-5.366296	-3.812334	 37.924440	-2.927599	-2.450526	 36.184240	 0.754587	-1.378229	 35.397820	-2.634230	-0.204972	 4.404835	-3.096706	-1.614396	-12.658020	-1.698184	 89.775180	 77.900870	 179.453800	-41.365230	 72.061440	 42.072020	 7.891892	-3.620530	 34.781700	-12.862260	-3.204967	 9.589502	 6.437017	 35.671460	-0.771858	 2.830251	 35.756010	-7.813440	-2.350882	 35.473990	 5.254307
